<?xml version="1.0" standalone="no"?>
<!DOCTYPE svg PUBLIC "-//W3C//DTD SVG 20010904//EN"
 "http://www.w3.org/TR/2001/REC-SVG-20010904/DTD/svg10.dtd">
<svg version="1.0" xmlns="http://www.w3.org/2000/svg"
 width="1920.000000pt" height="1920.000000pt" viewBox="0 0 1920.000000 1920.000000"
 preserveAspectRatio="xMidYMid meet">
<metadata>
Created by potrace 1.11, written by Peter Selinger 2001-2013
</metadata>
<g transform="translate(0.000000,1920.000000) scale(0.100000,-0.100000)"
fill="#000000" stroke="none">
<path d="M4907 14854 c-8 -8 4 -106 15 -126 5 -10 5 -18 0 -18 -8 0 -7 -31 2
-100 2 -19 7 -76 10 -125 4 -50 8 -102 11 -115 2 -14 7 -56 10 -95 3 -38 8
-86 10 -105 4 -34 8 -88 21 -240 3 -41 8 -93 10 -115 2 -22 6 -76 9 -120 3
-44 7 -96 9 -115 2 -19 7 -71 11 -115 4 -45 9 -101 11 -125 2 -25 6 -72 8
-105 2 -33 5 -60 6 -60 1 0 3 -22 5 -50 5 -64 14 -179 19 -230 2 -22 7 -78 10
-125 3 -47 9 -105 11 -130 8 -62 16 -175 18 -232 1 -27 4 -48 7 -48 3 0 5 -28
5 -62 -1 -35 3 -76 7 -93 9 -31 16 -105 23 -230 2 -38 4 -70 5 -70 1 0 3 -20
5 -45 1 -25 6 -81 10 -125 4 -44 9 -102 10 -130 2 -27 4 -50 5 -50 1 0 3 -22
5 -50 5 -79 16 -197 21 -235 2 -19 6 -79 8 -132 2 -53 6 -100 8 -105 3 -4 4
-25 4 -46 -1 -20 1 -37 4 -37 3 0 6 -19 6 -43 1 -45 10 -150 20 -232 4 -27 8
-77 9 -110 2 -33 4 -60 5 -60 3 0 7 -40 14 -140 3 -44 8 -105 12 -135 5 -54 9
-98 20 -255 10 -142 12 -160 18 -185 3 -14 8 -72 11 -130 3 -58 7 -118 9 -135
4 -28 8 -80 21 -255 3 -36 8 -87 11 -115 11 -99 13 -121 19 -200 3 -44 7 -96
10 -115 2 -19 6 -59 7 -87 2 -29 7 -53 12 -53 5 0 3 -6 -3 -13 -6 -8 -8 -17
-5 -20 7 -6 9 -25 18 -162 4 -49 9 -103 11 -120 3 -16 7 -63 10 -104 3 -40 8
-77 10 -82 3 -4 1 -10 -5 -14 -6 -4 -8 -10 -6 -14 7 -11 16 -97 21 -201 6
-119 13 -198 20 -230 8 -37 21 -162 31 -305 3 -38 7 -81 10 -95 2 -14 7 -72
10 -129 2 -57 7 -107 10 -112 2 -5 7 -46 9 -91 3 -46 7 -105 10 -133 3 -27 8
-77 10 -110 6 -80 13 -156 20 -235 3 -36 8 -92 11 -125 8 -111 12 -150 19
-215 4 -36 8 -89 9 -117 0 -29 3 -53 6 -53 3 0 5 -28 5 -63 0 -34 2 -66 4 -72
3 -5 6 -32 7 -60 3 -56 11 -165 19 -240 3 -27 8 -81 11 -120 6 -80 12 -138 14
-145 1 -3 3 -11 4 -19 1 -13 156 -66 156 -54 0 3 6 1 13 -4 6 -6 35 -16 62
-22 28 -7 57 -16 65 -19 8 -3 20 -6 25 -7 6 0 42 -10 80 -22 128 -38 300 -83
318 -83 9 0 17 -5 17 -12 0 -6 3 -9 6 -5 4 3 22 0 40 -8 19 -8 34 -11 34 -8 0
3 6 0 13 -6 8 -6 16 -8 20 -5 3 3 14 1 25 -5 10 -5 30 -12 43 -15 13 -3 34 -7
47 -10 12 -4 30 -8 40 -10 9 -2 44 -12 77 -22 33 -10 65 -19 70 -20 6 -2 35
-10 65 -19 65 -19 100 -27 118 -28 6 0 12 -5 12 -10 0 -6 3 -8 6 -4 3 3 23 -1
45 -8 22 -8 41 -15 44 -15 6 -1 18 -4 70 -19 22 -7 49 -14 60 -16 11 -2 20 -4
20 -5 0 -1 7 -3 15 -5 8 -2 58 -15 110 -29 52 -15 102 -29 110 -31 8 -2 17 -4
20 -5 3 -1 9 -2 14 -1 4 1 13 -2 20 -7 10 -9 108 -36 131 -37 6 0 15 -4 21 -7
6 -4 21 -9 35 -13 68 -15 235 -61 244 -66 6 -4 44 -14 85 -24 41 -10 83 -22
94 -27 10 -6 28 -11 40 -13 11 -1 62 -15 111 -30 50 -15 106 -31 125 -35 19
-5 52 -13 73 -19 59 -17 110 -31 131 -36 25 -6 87 -25 106 -33 8 -3 22 -7 30
-8 8 -2 40 -10 70 -19 30 -9 64 -18 75 -20 11 -3 70 -19 130 -35 61 -17 117
-32 125 -35 8 -2 46 -13 83 -25 38 -12 71 -19 75 -16 3 3 10 1 17 -4 6 -5 20
-11 31 -13 10 -2 36 -11 58 -20 21 -9 42 -15 46 -12 5 3 11 1 15 -4 8 -14 91
-6 150 14 28 10 57 19 65 20 8 2 17 4 20 5 3 1 10 3 15 4 6 1 37 11 70 21 33
11 65 20 70 20 6 0 15 3 20 6 6 4 28 10 50 14 45 9 54 12 58 15 1 1 9 3 17 5
8 2 56 15 105 29 50 14 91 26 93 26 1 0 3 0 5 1 1 0 10 2 20 5 9 2 25 6 35 8
9 3 18 5 20 6 1 2 5 3 10 4 4 2 32 10 63 20 31 9 65 18 75 21 19 4 159 43 182
50 7 3 13 4 15 3 1 -1 12 4 25 11 16 9 22 9 22 0 0 -8 4 -8 13 -2 16 13 149
55 247 79 16 4 86 23 268 73 62 17 117 29 122 26 4 -3 10 1 13 8 2 7 17 13 32
15 16 1 33 6 40 12 6 5 15 7 18 3 4 -3 12 -1 19 4 7 6 27 13 43 17 17 3 41 9
55 11 14 3 46 12 71 21 42 13 57 17 114 29 12 3 47 13 80 24 32 11 63 17 67
15 4 -3 8 -1 8 4 0 5 6 9 13 10 6 0 19 3 27 5 8 2 29 7 45 11 17 4 53 15 80
24 28 9 55 17 60 18 6 1 62 16 125 34 63 18 122 33 130 35 8 2 15 4 15 5 0 1
7 3 15 5 21 5 49 13 90 24 19 5 51 14 70 19 19 6 62 19 96 29 33 11 68 19 77
17 9 -1 17 1 17 5 0 4 6 8 13 9 19 1 38 6 247 67 107 31 205 58 218 61 24 5
81 25 142 50 33 14 36 18 36 62 1 26 4 90 8 142 5 52 9 118 11 145 2 28 4 50
5 50 1 0 3 27 5 60 2 33 6 87 9 120 13 120 17 161 20 240 2 44 6 87 9 95 3 8
5 22 5 30 0 16 9 135 18 245 4 39 7 96 8 127 0 32 3 58 6 58 5 0 10 28 13 68
0 6 4 12 8 12 5 0 6 7 3 15 -4 8 -1 15 6 15 8 0 9 7 5 18 -11 26 -12 96 -2
109 5 7 5 22 1 35 -4 13 -7 25 -7 28 8 36 20 155 27 273 3 48 8 120 12 160 4
40 8 91 8 114 1 24 3 43 7 43 3 0 5 10 5 23 1 32 14 217 19 252 2 17 7 68 10
115 8 106 15 194 20 240 9 78 18 197 19 232 1 21 3 38 6 38 3 0 5 17 6 38 2
75 20 313 29 387 2 17 7 71 10 120 4 50 9 104 11 120 2 17 7 71 10 120 3 50 7
101 10 115 3 14 7 57 10 95 3 39 7 88 9 110 2 22 6 85 10 140 3 55 9 107 12
115 2 8 7 53 9 100 2 47 6 103 9 125 3 22 7 78 10 125 3 47 8 101 10 120 3 19
7 53 10 75 3 22 7 74 10 115 3 41 8 98 10 125 2 28 6 79 9 115 3 36 8 90 11
120 4 30 8 78 10 105 10 140 22 270 25 270 1 0 3 34 5 75 2 41 6 100 9 130 3
30 8 84 11 120 10 105 13 133 20 170 4 19 8 78 10 130 4 90 8 145 21 270 3 30
7 80 10 110 9 129 14 189 19 245 4 33 7 85 9 116 1 30 5 60 8 65 3 5 6 32 7
59 1 28 4 66 6 85 4 45 15 190 20 255 2 28 6 75 9 105 3 30 8 87 11 125 3 39
8 99 11 135 3 36 7 88 9 115 2 28 4 50 5 50 1 0 3 22 5 49 2 27 6 75 9 105 3
31 8 90 11 131 3 41 8 95 10 120 2 25 7 72 10 105 3 33 7 78 10 100 2 22 7 72
10 110 3 39 7 95 10 125 8 103 16 175 24 205 12 49 13 202 2 223 -9 16 -17 18
-48 13 -21 -4 -274 -6 -563 -4 -755 4 -774 4 -1338 1 -283 -2 -516 0 -518 4
-3 4 -14 4 -27 1 -33 -8 -1740 -10 -1752 -2 -5 4 -30 4 -55 0 -55 -8 -5000 -6
-5051 2 -20 3 -39 3 -42 1z"/>
</g>
</svg>
